<svg xmlns="http://www.w3.org/2000/svg" width="32.704" height="34.722" viewBox="0 0 32.704 34.722">
  <g id="Group_232" data-name="Group 232" transform="translate(-172.232 -38.025)">
    <path id="Path_89" data-name="Path 89" d="M193.285,62.11a12.042,12.042,0,1,1,12.042-12.042A12.056,12.056,0,0,1,193.285,62.11Zm0-22.2a10.153,10.153,0,1,0,10.153,10.153A10.165,10.165,0,0,0,193.285,39.914Z" transform="translate(-4.7 0)"/>
    <path id="Path_90" data-name="Path 90" d="M203.991,102.146a.942.942,0,0,1-.648-.257,22.342,22.342,0,0,0-29.519-.093.944.944,0,0,1-1.3-1.375,24.226,24.226,0,0,1,32.11.093.944.944,0,0,1-.648,1.632Z" transform="translate(0 -29.4)"/>
  </g>
</svg>
