<svg id="Group_150" data-name="Group 150" xmlns="http://www.w3.org/2000/svg" xmlns:xlink="http://www.w3.org/1999/xlink" width="34.883" height="33.428" viewBox="0 0 34.883 33.428">
  <defs>
    <clipPath id="clip-path">
      <rect id="Rectangle_45" data-name="Rectangle 45" width="34.883" height="33.428" fill="none"/>
    </clipPath>
  </defs>
  <g id="Group_33" data-name="Group 33" transform="translate(0 0)" clip-path="url(#clip-path)">
    <path id="Path_48" data-name="Path 48" d="M17.479,33.428a1.354,1.354,0,0,1-.982-.423c-.5-.534-.995-1.026-1.513-1.546a84.951,84.951,0,0,1-8.367-9.692q-.756-.982-1.16-1.488A.858.858,0,0,1,6.8,19.21q.41.514,1.18,1.514A82.543,82.543,0,0,0,16.2,30.249c.435.436.852.854,1.272,1.291.591-.659,1.168-1.251,1.773-1.873a86.385,86.385,0,0,0,7.611-8.891l1.22-1.6a33.723,33.723,0,0,0,3.825-6.1,11.522,11.522,0,0,0,1.27-4.653,6.218,6.218,0,0,0-2.061-4.735,7.083,7.083,0,0,0-5.1-1.968A8.6,8.6,0,0,0,18.455,7.1a1.025,1.025,0,0,1-.958.684H17.49a1.025,1.025,0,0,1-.96-.672A8.885,8.885,0,0,0,8.9,1.714,7.117,7.117,0,0,0,3.775,3.682a6.22,6.22,0,0,0-2.06,4.735,11.585,11.585,0,0,0,1.269,4.7.857.857,0,1,1-1.555.723A13.231,13.231,0,0,1,0,8.417,7.955,7.955,0,0,1,2.6,2.436,8.873,8.873,0,0,1,8.9,0a10.693,10.693,0,0,1,8.577,5.139A10.368,10.368,0,0,1,26.007,0a8.842,8.842,0,0,1,6.278,2.436,7.956,7.956,0,0,1,2.6,5.982,13.164,13.164,0,0,1-1.429,5.376,35.406,35.406,0,0,1-4.017,6.421l-1.221,1.6a87.816,87.816,0,0,1-7.745,9.046c-.708.728-1.32,1.356-1.975,2.1a1.358,1.358,0,0,1-.993.461h-.025" transform="translate(0 0)"/>
  </g>
</svg>
